<?xml version="1.0" standalone="no"?><!DOCTYPE svg PUBLIC "-//W3C//DTD SVG 1.1//EN" "http://www.w3.org/Graphics/SVG/1.1/DTD/svg11.dtd"><svg t="1569404128126" class="icon" viewBox="0 0 1303 1024" version="1.1" xmlns="http://www.w3.org/2000/svg" p-id="6401" xmlns:xlink="http://www.w3.org/1999/xlink" width="20.359375" height="16"><defs><style type="text/css"></style></defs><path d="M65.163636 0h260.282182c13.032727 19.549091 195.211636 325.818182 195.211637 325.818182l-65.163637 130.327273-195.118545-325.818182H65.070545C32.581818 130.327273 0 97.745455 0 65.163636S32.581818 0 65.163636 0z m1223.493819 488.727273L1041.314909 651.636364c-19.549091 19.549091-45.614545 19.549091-65.163636 0V521.309091H715.869091l-260.282182 456.145454H65.070545C32.581818 977.454545 0 944.872727 0 912.290909s32.581818-65.163636 65.163636-65.163636h325.352728L650.705455 390.981818h325.445818V260.654545c19.549091-19.549091 45.614545-19.549091 65.070545 0l247.342546 169.425455c19.549091 19.549091 19.549091 45.614545 0 58.647273z" p-id="6402" fill="#8a8a8a"></path></svg>