<?xml version="1.0" standalone="no"?><!DOCTYPE svg PUBLIC "-//W3C//DTD SVG 1.1//EN" "http://www.w3.org/Graphics/SVG/1.1/DTD/svg11.dtd"><svg t="1597390261869" class="icon" viewBox="0 0 1161 1024" version="1.1" xmlns="http://www.w3.org/2000/svg" p-id="6672" width="18.140625" height="16" xmlns:xlink="http://www.w3.org/1999/xlink"><defs><style type="text/css"></style></defs><path d="M19.36455 325.064377h198.90844l109.902718 119.964235 127.703863-118.416309L294.121345 154.792561H19.36455a19.34907 19.34907 0 0 0-19.34907 16.253218V309.585121a19.34907 19.34907 0 0 0 19.34907 15.479256zM866.079856 326.612303v90.553648a58.821173 58.821173 0 0 0 61.917025 61.917024 63.46495 63.46495 0 0 0 36.376251-14.705293c14.705293-14.705293 174.141631-183.429184 174.141631-183.429185A51.081545 51.081545 0 0 0 1160.959684 239.928469a52.629471 52.629471 0 0 0-22.444921-39.472103S978.304463 27.088698 961.277281 12.383405A51.081545 51.081545 0 0 0 928.770843 0c-38.69814 0-58.821173 21.670958-61.917024 61.917024V154.792561H716.705035L212.855251 696.566523H19.36455a19.34907 19.34907 0 0 0-19.34907 20.123033V851.359083a20.123033 20.123033 0 0 0 19.34907 20.123033h270.113018l502.301859-541.773962z" fill="#8a8a8a" p-id="6673"></path><path d="M1138.514763 745.326179s-160.2103-174.141631-177.237482-188.072961A47.211731 47.211731 0 0 0 928.770843 541.773962c-38.69814 0-58.821173 21.670958-61.917024 61.143061V696.566523h-68.108726L681.102747 570.410586 553.398884 688.826895l103.711016 112.224606 12.383404 13.93133 51.855508 56.499285h144.731044v90.553648a59.595136 59.595136 0 0 0 61.917025 61.917024 68.882689 68.882689 0 0 0 36.376251-17.027181l174.141631-184.203147a50.307582 50.307582 0 0 0 22.444921-38.698141 51.081545 51.081545 0 0 0-22.444921-38.69814z" fill="#8a8a8a" p-id="6674"></path></svg>